<?xml version="1.0" encoding="UTF-8"?>
<svg version="1.1" xmlns="http://www.w3.org/2000/svg" width="256" height="256">
<path d="M0 0 C84.48 0 168.96 0 256 0 C256 84.48 256 168.96 256 256 C171.52 256 87.04 256 0 256 C0 171.52 0 87.04 0 0 Z " fill="#010101" transform="translate(0,0)"/>
<path d="M0 0 C3.63 0.33 7.26 0.66 11 1 C11 4.27217135 10.73516599 6.62554456 10 9.75 C9.7215625 10.94882812 9.7215625 10.94882812 9.4375 12.171875 C9.293125 12.77515625 9.14875 13.3784375 9 14 C9.66 14 10.32 14 11 14 C11 20.93 11 27.86 11 35 C12.65 35.33 14.3 35.66 16 36 C16.33 36.33 16.66 36.66 17 37 C19.32817964 37.36760731 21.6618385 37.70241581 24 38 C24 37.34 24 36.68 24 36 C22.515 35.505 22.515 35.505 21 35 C24.97662354 33.67445882 27.09887911 34.65234006 31 36 C31.66 36.66 32.32 37.32 33 38 C35.13592982 38.42355123 35.13592982 38.42355123 37.5 38.5625 C41.81081081 38.90540541 41.81081081 38.90540541 44 40 C44 39.01 44 38.02 44 37 C48.95 36.505 48.95 36.505 54 36 C54 27.42 54 18.84 54 10 C57.3 10.33 60.6 10.66 64 11 C64.99 12.98 64.99 12.98 66 15 C65.67 15.86625 65.34 16.7325 65 17.625 C63.57153356 22.44607422 64.87206131 26.19692332 66 31 C67.17618294 36.7113748 67.48163854 42.58755757 65 48 C62.91796875 49.2578125 62.91796875 49.2578125 61 50 C61 48.68 61 47.36 61 46 C59.88625 46.66 58.7725 47.32 57.625 48 C54.25 50 54.25 50 52 50 C52.14107747 48.54119891 52.28802415 47.08296449 52.4375 45.625 C52.55931641 44.40683594 52.55931641 44.40683594 52.68359375 43.1640625 C53 41 53 41 54 39 C53.45472656 39.2165625 52.90945312 39.433125 52.34765625 39.65625 C43.61253355 42.88152607 37.11073587 42.85059505 28.45703125 39.36328125 C24.96022567 38.84626548 23.10579444 40.40295366 20 42 C16.3515625 42.51171875 16.3515625 42.51171875 12.625 42.6875 C10.75714844 42.78611328 10.75714844 42.78611328 8.8515625 42.88671875 C7.91054687 42.92410156 6.96953125 42.96148437 6 43 C6.495 45.475 6.495 45.475 7 48 C7.99 48 8.98 48 10 48 C10 49.32 10 50.64 10 52 C11.98 52 13.96 52 16 52 C16.061875 52.61875 16.12375 53.2375 16.1875 53.875 C16.80922307 56.20952161 16.80922307 56.20952161 19.1875 57.125 C20.115625 57.41375 21.04375 57.7025 22 58 C23.093125 58.37125 24.18625 58.7425 25.3125 59.125 C26.199375 59.41375 27.08625 59.7025 28 60 C27.67 58.35 27.34 56.7 27 55 C27.66 55 28.32 55 29 55 C29.5878125 56.3921875 29.5878125 56.3921875 30.1875 57.8125 C32.20968374 61.36875416 33.39372096 62.22507461 37 64 C39.81135652 64.56305484 39.81135652 64.56305484 42.75 64.8125 C48.76006631 65.6902077 53.63222048 67.66530972 58 72 C58 72.99 58 73.98 58 75 C58.99 75.33 59.98 75.66 61 76 C61 76.99 61 77.98 61 79 C65.29 79.33 69.58 79.66 74 80 C74 79.34 74 78.68 74 78 C75.32 78.33 76.64 78.66 78 79 C77.67 80.32 77.34 81.64 77 83 C73.98146205 83 71.22918921 82.85049285 68.25 82.5 C67.45078125 82.4071875 66.6515625 82.314375 65.828125 82.21875 C65.22484375 82.1465625 64.6215625 82.074375 64 82 C64.66 83.32 65.32 84.64 66 86 C65.44828125 85.85691406 64.8965625 85.71382813 64.328125 85.56640625 C61.81285231 84.9544691 59.28957492 84.43873189 56.75 83.9375 C55.85796875 83.76089844 54.9659375 83.58429688 54.046875 83.40234375 C53.37140625 83.26957031 52.6959375 83.13679688 52 83 C52.33 84.65 52.66 86.3 53 88 C51.68 88 50.36 88 49 88 C48.505 89.485 48.505 89.485 48 91 C47.67 89.68 47.34 88.36 47 87 C46.34 87 45.68 87 45 87 C45 86.34 45 85.68 45 85 C44.01 85 43.02 85 42 85 C42.44703986 89.47883696 42.44703986 89.47883696 45 93 C43.63875 92.9071875 43.63875 92.9071875 42.25 92.8125 C38.71017358 93.01672076 37.55068845 93.64551835 35 96 C34.34 95.67 33.68 95.34 33 95 C32.375 92.9375 32.375 92.9375 32 91 C30.824375 91.99 30.824375 91.99 29.625 93 C27 95 27 95 25 95 C24.9071875 96.1446875 24.9071875 96.1446875 24.8125 97.3125 C24 100 24 100 21.625 101.3125 C17.83714816 103.74754761 17.30754641 106.84267294 16 111 C15.0625 113.4375 15.0625 113.4375 14 115 C11.875 115.75 11.875 115.75 10 116 C10.4125 115.360625 10.825 114.72125 11.25 114.0625 C12.66366446 111.5885872 13.69627494 109.31272882 14.75 106.6875 C17.48522401 100.39648479 21.59755354 94.7940501 28 92 C28 91.01 28 90.02 28 89 C28.66 89 29.32 89 30 89 C30.33 87.35 30.66 85.7 31 84 C29.02 84.33 27.04 84.66 25 85 C25.495 83.515 25.495 83.515 26 82 C27.11375 81.71125 28.2275 81.4225 29.375 81.125 C33.1436647 80.34779594 33.1436647 80.34779594 34.9375 77.375 C35.288125 76.59125 35.63875 75.8075 36 75 C33.39986574 70.90892301 33.39986574 70.90892301 30.25 67.25 C29.8375 66.8375 29.425 66.425 29 66 C29 65.34 29 64.68 29 64 C26.69 63.67 24.38 63.34 22 63 C23.485 63.99 23.485 63.99 25 65 C25.12375 65.804375 25.2475 66.60875 25.375 67.4375 C25.75402917 70.25503114 25.75402917 70.25503114 28.5625 71.6875 C29.366875 72.120625 30.17125 72.55375 31 73 C31 73.66 31 74.32 31 75 C28.03824877 74.38722388 26.61941217 73.74627478 24 72 C22.96986723 70.35178756 21.96885372 68.68496298 21 67 C20.34 66.34 19.68 65.68 19 65 C18.814375 64.071875 18.814375 64.071875 18.625 63.125 C17.54869872 59.46557563 15.00240946 57.55689414 11.75 55.75 C11.1725 55.5025 10.595 55.255 10 55 C10 54.34 10 53.68 10 53 C7.08482708 54.07401108 5.22189824 54.77810176 3 57 C1.9275 57.268125 0.855 57.53625 -0.25 57.8125 C-4.67171181 59.21270874 -6.56971177 60.95951725 -10 64 C-10.99 64.33 -11.98 64.66 -13 65 C-14.58598269 67.21430916 -15.92545646 69.52338627 -17.3046875 71.87109375 C-19.30845151 74.38734118 -20.96648177 75.05909519 -24 76 C-23.67 74.02 -23.34 72.04 -23 70 C-26.64225307 72.16800778 -29.31938851 74.20242238 -32 77.5 C-34.67189146 80.73549356 -37.22976309 83.03633494 -41 85 C-44.375 85.25 -44.375 85.25 -47 85 C-47 85.66 -47 86.32 -47 87 C-55.38908865 91.76776839 -63.30445184 94.19147402 -73 94 C-71.71708803 90.1512641 -70.54382857 89.84895404 -67 88 C-64.66666667 87 -62.33333333 86 -60 85 C-59.21625 84.484375 -58.4325 83.96875 -57.625 83.4375 C-54.52133491 81.73787388 -51.65913466 81.21495497 -48.2109375 80.5390625 C-45.23543464 79.81358654 -42.71616313 78.38966486 -40 77 C-38.68 77 -37.36 77 -36 77 C-35.76410156 76.4225 -35.52820313 75.845 -35.28515625 75.25 C-33.26042529 71.70518227 -30.12225794 69.56095371 -26.99609375 67 C-24.86987399 64.86961934 -24.53206803 63.86958036 -24 61 C-22 59 -22 59 -18.6875 58.125 C-14.3098705 56.78945202 -11.25422832 55.3422336 -9.02734375 51.18359375 C-8.28820953 49.48186612 -7.63673127 47.74263295 -7 46 C-6.67 46.66 -6.34 47.32 -6 48 C-3.91666921 46.25065102 -3.91666921 46.25065102 -2 44 C-2 42.68 -2 41.36 -2 40 C-3.65 40 -5.3 40 -7 40 C-7 40.66 -7 41.32 -7 42 C-9.31 41.67 -11.62 41.34 -14 41 C-14 41.66 -14 42.32 -14 43 C-14.59167969 42.84402344 -15.18335938 42.68804687 -15.79296875 42.52734375 C-21.02562494 41.23838603 -24.5427143 40.85019655 -29.71484375 42.5703125 C-32.81363503 43.1529912 -35.61504981 42.84464552 -38.75 42.5625 C-40.50570312 42.40974609 -40.50570312 42.40974609 -42.296875 42.25390625 C-43.18890625 42.17011719 -44.0809375 42.08632812 -45 42 C-44.89558594 42.58007812 -44.79117188 43.16015625 -44.68359375 43.7578125 C-44.40716552 46.41678877 -44.3518946 48.39487044 -45 51 C-47.69293228 53.59844343 -50.67300529 55.3166991 -54 57 C-54.93201642 41.32215242 -55.12135629 25.70350428 -55 10 C-53.01926635 10.280828 -51.04041552 10.57496614 -49.0625 10.875 C-47.96035156 11.03742187 -46.85820313 11.19984375 -45.72265625 11.3671875 C-44.82417969 11.57601562 -43.92570312 11.78484375 -43 12 C-42.67 12.66 -42.34 13.32 -42 14 C-42.66 14 -43.32 14 -44 14 C-43.98839844 14.71542969 -43.97679688 15.43085937 -43.96484375 16.16796875 C-43.89546871 23.82895572 -44.31097279 31.37148446 -45 39 C-43.77023438 38.855625 -42.54046875 38.71125 -41.2734375 38.5625 C-39.64064536 38.37482274 -38.00783171 38.18733263 -36.375 38 C-35.16263672 37.85691406 -35.16263672 37.85691406 -33.92578125 37.7109375 C-29.59026261 37.21746383 -25.37262689 36.88679283 -21 37 C-21 37.66 -21 38.32 -21 39 C-20.071875 38.505 -20.071875 38.505 -19.125 38 C-15.40388367 36.80924277 -12.27732294 36.89001783 -8.40234375 37.02734375 C-5.70132136 37.08929418 -5.70132136 37.08929418 -2 36 C-1.34 24.12 -0.68 12.24 0 0 Z " fill="#F3F3F3" transform="translate(123,51)"/>
<path d="M0 0 C1.32 0 2.64 0 4 0 C4.495 0.99 4.495 0.99 5 2 C6.2684375 2.7425 6.2684375 2.7425 7.5625 3.5 C8.366875 3.995 9.17125 4.49 10 5 C10 5.66 10 6.32 10 7 C10.99 7.33 11.98 7.66 13 8 C13.69658363 9.65438613 14.36096883 11.32254318 15 13 C15.53625 13.53625 16.0725 14.0725 16.625 14.625 C17.07875 15.07875 17.5325 15.5325 18 16 C18 16.99 18 17.98 18 19 C20.33214148 20.20628008 22.49642139 21.1654738 25 22 C23.06745228 19.9754262 21.36841312 18.57894208 19 17 C18.8125 14.375 18.8125 14.375 19 12 C17.68 11.67 16.36 11.34 15 11 C15.33 10.34 15.66 9.68 16 9 C21.6365987 10.01458777 24.24193354 11.67321796 27.77734375 16.1796875 C29.2366711 18.35236017 30.24105102 20.49546836 31 23 C28.00518135 27.22797927 28.00518135 27.22797927 26 29 C22.6875 29.375 22.6875 29.375 20 29 C20.495 29.99 20.495 29.99 21 31 C22.65 30.67 24.3 30.34 26 30 C25.34 31.98 24.68 33.96 24 36 C23.34 36 22.68 36 22 36 C22 36.99 22 37.98 22 39 C20.35546875 40.68359375 20.35546875 40.68359375 18.1875 42.4375 C14.02945929 45.82300856 11.18883048 48.85308807 9.5 54 C8.38958653 57.14520256 7.08145746 59.37555363 5 62 C3.4590826 65.0818348 2.83089765 67.86072796 2.4375 71.25 C2 75 2 75 1 76 C0.63239269 78.32817964 0.29758419 80.6618385 0 83 C3.51249417 80.74782752 4.88873998 78.66443687 6.5625 74.875 C7.75390625 72.1796875 7.75390625 72.1796875 9 70 C9.99 69.67 10.98 69.34 12 69 C11.835 70.010625 11.67 71.02125 11.5 72.0625 C11.03014231 75.76262933 10.92400151 79.27607391 11 83 C10.01 83 9.02 83 8 83 C8 82.34 8 81.68 8 81 C4.88214887 81.64644661 4.88214887 81.64644661 4 84 C4.99 83.67 5.98 83.34 7 83 C7 85.97 7 88.94 7 92 C5.68 91.67 4.36 91.34 3 91 C3 92.32 3 93.64 3 95 C2.01 95.495 2.01 95.495 1 96 C0.34444881 98.52733235 0.34444881 98.52733235 0 101 C-4.455 101.99 -4.455 101.99 -9 103 C-9 101.68 -9 100.36 -9 99 C-9.99 98.67 -10.98 98.34 -12 98 C-13.23076923 91.6 -13.23076923 91.6 -12.0625 88.5625 C-11.5365625 87.7890625 -11.5365625 87.7890625 -11 87 C-10.01 87.495 -10.01 87.495 -9 88 C-8.375 91.0625 -8.375 91.0625 -8 94 C-7.34 94 -6.68 94 -6 94 C-6.17917969 93.09636719 -6.35835937 92.19273437 -6.54296875 91.26171875 C-6.75566406 90.08222656 -6.96835938 88.90273437 -7.1875 87.6875 C-7.51814453 85.92986328 -7.51814453 85.92986328 -7.85546875 84.13671875 C-7.90316406 83.10160156 -7.95085937 82.06648438 -8 81 C-6.53125 79.40625 -6.53125 79.40625 -5 78 C-4.85365929 75.47342233 -4.85365929 75.47342233 -5.3125 72.8125 C-5.43238281 71.91144531 -5.55226562 71.01039063 -5.67578125 70.08203125 C-5.78277344 69.39496094 -5.88976562 68.70789063 -6 68 C-6.928125 67.773125 -7.85625 67.54625 -8.8125 67.3125 C-12.58663 65.75844647 -13.18452921 64.54449058 -15 61 C-15.556875 60.525625 -16.11375 60.05125 -16.6875 59.5625 C-18.6690477 57.20351465 -18.06237141 54.99382746 -18 52 C-19.72226496 48.75150023 -19.72226496 48.75150023 -23 48 C-26.02961194 45.66952928 -26.32634221 43.65699942 -27 40 C-27.66 39.67 -28.32 39.34 -29 39 C-29 42.3 -29 45.6 -29 49 C-31.48341272 47.06845677 -33.78934524 45.23874207 -35.875 42.875 C-38.66066756 40.41705803 -41.45823071 39.9838248 -45 39 C-45.66 38.01 -46.32 37.02 -47 36 C-46.34 35.34 -45.68 34.68 -45 34 C-45.66 33.67 -46.32 33.34 -47 33 C-45.85601077 29.56803232 -45.13797957 29.15805749 -42.25 27.1875 C-39.49493105 25.21959361 -37.31456192 23.37143049 -35.25 20.6875 C-33 18 -33 18 -30.6875 17.125 C-30.130625 17.08375 -29.57375 17.0425 -29 17 C-29.33 18.98 -29.66 20.96 -30 23 C-25.42538587 20.40078743 -23.69192475 18.58922673 -21.265625 13.80859375 C-18.73733209 10.19563197 -14.72868147 8.2179818 -11 6 C-10.01 5.34 -9.02 4.68 -8 4 C-6.989375 3.67 -5.97875 3.34 -4.9375 3 C-1.91944266 2.21378109 -1.91944266 2.21378109 0 0 Z " fill="#0A0A0A" transform="translate(129,104)"/>
<path d="M0 0 C0.99 0.33 1.98 0.66 3 1 C2.67 3.31 2.34 5.62 2 8 C1.34 7.01 0.68 6.02 0 5 C-2.64167228 6.52791204 -2.64167228 6.52791204 -5 9 C-5.41771804 12.66799815 -5.41771804 12.66799815 -5 16 C-4.34 16.33 -3.68 16.66 -3 17 C-3.66 17 -4.32 17 -5 17 C-4.67 17.99 -4.34 18.98 -4 20 C-3.01 19.34 -2.02 18.68 -1 18 C-1.30759178 19.97993541 -1.6212068 21.95893599 -1.9375 23.9375 C-2.11152344 25.03964844 -2.28554687 26.14179688 -2.46484375 27.27734375 C-3 30 -3 30 -4 31 C-4.36760731 33.32817964 -4.70241581 35.6618385 -5 38 C-1.48750583 35.74782752 -0.11126002 33.66443687 1.5625 29.875 C2.75390625 27.1796875 2.75390625 27.1796875 4 25 C4.99 24.67 5.98 24.34 7 24 C6.835 25.010625 6.67 26.02125 6.5 27.0625 C6.03014231 30.76262933 5.92400151 34.27607391 6 38 C5.01 38 4.02 38 3 38 C3 37.34 3 36.68 3 36 C-0.11785113 36.64644661 -0.11785113 36.64644661 -1 39 C0.485 38.505 0.485 38.505 2 38 C2 40.97 2 43.94 2 47 C0.68 46.67 -0.64 46.34 -2 46 C-2 47.32 -2 48.64 -2 50 C-2.99 50.495 -2.99 50.495 -4 51 C-4.65555119 53.52733235 -4.65555119 53.52733235 -5 56 C-7.97 56.66 -10.94 57.32 -14 58 C-14 56.68 -14 55.36 -14 54 C-14.99 53.67 -15.98 53.34 -17 53 C-18.23076923 46.6 -18.23076923 46.6 -17.0625 43.5625 C-16.711875 43.046875 -16.36125 42.53125 -16 42 C-15.34 42.33 -14.68 42.66 -14 43 C-13.375 46.0625 -13.375 46.0625 -13 49 C-12.34 49 -11.68 49 -11 49 C-11.17917969 48.09636719 -11.35835938 47.19273437 -11.54296875 46.26171875 C-11.86201172 44.49248047 -11.86201172 44.49248047 -12.1875 42.6875 C-12.40792969 41.51574219 -12.62835938 40.34398437 -12.85546875 39.13671875 C-13 36 -13 36 -11.5625 34.40625 C-11.046875 33.9421875 -10.53125 33.478125 -10 33 C-9.63786432 30.48710325 -9.63786432 30.48710325 -9.8125 27.8125 C-9.85310547 26.46091797 -9.85310547 26.46091797 -9.89453125 25.08203125 C-9.92933594 24.39496094 -9.96414062 23.70789063 -10 23 C-8.68 23.66 -7.36 24.32 -6 25 C-6 23.68 -6 22.36 -6 21 C-7.98 21.33 -9.96 21.66 -12 22 C-12.02708567 20.39592672 -12.04643483 18.7917215 -12.0625 17.1875 C-12.07410156 16.29417969 -12.08570312 15.40085938 -12.09765625 14.48046875 C-12 12 -12 12 -11 9 C-9.34151823 7.98648336 -7.67334039 6.98879205 -6 6 C-4.29503463 4.37253306 -2.62102968 2.71108689 -1 1 C-0.67 0.67 -0.34 0.34 0 0 Z " fill="#F2F2F2" transform="translate(134,149)"/>
<path d="M0 0 C1.98073365 0.280828 3.95958448 0.57496614 5.9375 0.875 C7.59072266 1.11863281 7.59072266 1.11863281 9.27734375 1.3671875 C10.17582031 1.57601562 11.07429688 1.78484375 12 2 C12.33 2.66 12.66 3.32 13 4 C12.34 4 11.68 4 11 4 C11.01160156 4.71542969 11.02320312 5.43085937 11.03515625 6.16796875 C11.10453129 13.82895572 10.68902721 21.37148446 10 29 C11.84464844 28.7834375 11.84464844 28.7834375 13.7265625 28.5625 C15.35935464 28.37482274 16.99216829 28.18733263 18.625 28 C19.83736328 27.85691406 19.83736328 27.85691406 21.07421875 27.7109375 C25.40973739 27.21746383 29.62737311 26.88679283 34 27 C34 27.66 34 28.32 34 29 C35.32 29.33 36.64 29.66 38 30 C37 31 37 31 35.109375 31.02734375 C33.54675802 30.96784012 31.98425061 30.90537964 30.421875 30.83984375 C27.94144084 30.86759253 27.94144084 30.86759253 25.62890625 32.02734375 C22.25691341 33.274931 19.74743174 32.98458906 16.1875 32.625 C15.02605469 32.51414063 13.86460938 32.40328125 12.66796875 32.2890625 C11.78753906 32.19367188 10.90710938 32.09828125 10 32 C10.10441406 32.58007812 10.20882812 33.16015625 10.31640625 33.7578125 C10.59283448 36.41678877 10.6481054 38.39487044 10 41 C7.30706772 43.59844343 4.32699471 45.3166991 1 47 C0.06798358 31.32215242 -0.12135629 15.70350428 0 0 Z " fill="#F8F8F8" transform="translate(68,61)"/>
<path d="M0 0 C1.70779973 1.62449243 3.37550757 3.29220027 5 5 C7.17346568 5.86119134 7.17346568 5.86119134 9 6 C8.67 4.68 8.34 3.36 8 2 C9.65 2 11.3 2 13 2 C13 2.99 13 3.98 13 5 C14.9254644 7.2236068 14.9254644 7.2236068 18 8 C18.33 7.01 18.66 6.02 19 5 C21.9375 5.75 21.9375 5.75 25 7 C25.6875 9 25.6875 9 26 11 C26.99 11.66 27.98 12.32 29 13 C29.495 14.485 29.495 14.485 30 16 C31.65948148 17.01187895 33.32580562 18.0126546 35 19 C35 19.66 35 20.32 35 21 C30.375 23.125 30.375 23.125 27 22 C27 21.01 27 20.02 27 19 C26.34 19 25.68 19 25 19 C25.11487748 20.58409994 25.24234508 22.16728963 25.375 23.75 C25.44460937 24.63171875 25.51421875 25.5134375 25.5859375 26.421875 C25.99850055 28.99066382 26.71160957 30.75841015 28 33 C28.99 33 29.98 33 31 33 C31 33.66 31 34.32 31 35 C28.625 34.75 28.625 34.75 26 34 C24.875 32.125 24.875 32.125 24 30 C23.195625 29.319375 23.195625 29.319375 22.375 28.625 C20.33727515 26.21677973 20.93606008 24.06911628 21 21 C19.27773504 17.75150023 19.27773504 17.75150023 16 17 C12.97038806 14.66952928 12.67365779 12.65699942 12 9 C11.34 8.67 10.68 8.34 10 8 C10 11.3 10 14.6 10 18 C7.51658728 16.06845677 5.21065476 14.23874207 3.125 11.875 C0.33933244 9.41705803 -2.45823071 8.9838248 -6 8 C-6.66 7.01 -7.32 6.02 -8 5 C-7.34 4.34 -6.68 3.68 -6 3 C-6.33 2.34 -6.66 1.68 -7 1 C-4.35955695 -0.32022153 -2.93650531 -0.40974493 0 0 Z " fill="#EAEAEA" transform="translate(90,135)"/>
<path d="M0 0 C3.3 0.33 6.6 0.66 10 1 C10.66 2.32 11.32 3.64 12 5 C11.67 5.86625 11.34 6.7325 11 7.625 C9.57153356 12.44607422 10.87206131 16.19692332 12 21 C13.17618294 26.7113748 13.48163854 32.58755757 11 38 C8.91796875 39.2578125 8.91796875 39.2578125 7 40 C7 38.68 7 37.36 7 36 C5.88625 36.66 4.7725 37.32 3.625 38 C0.25 40 0.25 40 -2 40 C-1.88541307 38.56163249 -1.75790884 37.12429034 -1.625 35.6875 C-1.55539063 34.88699219 -1.48578125 34.08648437 -1.4140625 33.26171875 C-1 31 -1 31 1 28 C0.01 27.67 -0.98 27.34 -2 27 C-1.34 26.67 -0.68 26.34 0 26 C0 17.42 0 8.84 0 0 Z " fill="#F2F2F2" transform="translate(177,61)"/>
<path d="M0 0 C2.75 -0.3125 2.75 -0.3125 5 0 C5.495 1.98 5.495 1.98 6 4 C6.33 3.34 6.66 2.68 7 2 C9.31 2.66 11.62 3.32 14 4 C14 4.99 14 5.98 14 7 C14.66 7.33 15.32 7.66 16 8 C16 9.65 16 11.3 16 13 C14.68 13 13.36 13 12 13 C11.67 13.99 11.34 14.98 11 16 C10.505 14.02 10.505 14.02 10 12 C9.34 12 8.68 12 8 12 C8 11.34 8 10.68 8 10 C7.01 10 6.02 10 5 10 C5.44703986 14.47883696 5.44703986 14.47883696 8 18 C6.63875 17.9071875 6.63875 17.9071875 5.25 17.8125 C1.71017358 18.01672076 0.55068845 18.64551835 -2 21 C-2.66 20.67 -3.32 20.34 -4 20 C-4.625 17.9375 -4.625 17.9375 -5 16 C-5.78375 16.66 -6.5675 17.32 -7.375 18 C-10 20 -10 20 -12 20 C-12.061875 20.763125 -12.12375 21.52625 -12.1875 22.3125 C-13 25 -13 25 -15.375 26.3125 C-19.16285184 28.74754761 -19.69245359 31.84267294 -21 36 C-21.9375 38.4375 -21.9375 38.4375 -23 40 C-25.125 40.75 -25.125 40.75 -27 41 C-26.5875 40.360625 -26.175 39.72125 -25.75 39.0625 C-24.33633554 36.5885872 -23.30372506 34.31272882 -22.25 31.6875 C-19.51477599 25.39648479 -15.40244646 19.7940501 -9 17 C-9 16.01 -9 15.02 -9 14 C-8.34 14 -7.68 14 -7 14 C-6.67 12.35 -6.34 10.7 -6 9 C-7.98 9.33 -9.96 9.66 -12 10 C-11.67 9.01 -11.34 8.02 -11 7 C-9.906875 6.71125 -8.81375 6.4225 -7.6875 6.125 C-3.41453382 4.8213832 -2.67640961 3.39011884 0 0 Z " fill="#0F0F0F" transform="translate(160,126)"/>
<path d="M0 0 C1.875 0.125 1.875 0.125 4 1 C5.125 3.875 5.125 3.875 6 7 C6.99 8.485 6.99 8.485 8 10 C7.890625 12.50390625 7.890625 12.50390625 7 15 C4.31709347 17.34477162 1.33864697 18.78230855 -2 20 C-5.22351459 19.70695322 -6.26216684 18.80323665 -8.41015625 16.46484375 C-10.47975487 13.84181486 -11.83769989 11.61969134 -12.6875 8.375 C-11.5649837 4.49721643 -9.3365253 3.10077519 -6 1 C-2.625 1.1875 -2.625 1.1875 0 2 C0 1.34 0 0.68 0 0 Z " fill="#F7F7F7" transform="translate(132,119)"/>
<path d="M0 0 C0.66 0 1.32 0 2 0 C2 1.32 2 2.64 2 4 C2.99 4 3.98 4 5 4 C5.66 2.68 6.32 1.36 7 0 C7.66 0 8.32 0 9 0 C9.28875 0.94875 9.5775 1.8975 9.875 2.875 C10.76825109 6.05211578 10.76825109 6.05211578 13 8 C11.63875 7.9071875 11.63875 7.9071875 10.25 7.8125 C6.71017358 8.01672076 5.55068845 8.64551835 3 11 C2.34 10.67 1.68 10.34 1 10 C0.375 7.9375 0.375 7.9375 0 6 C-0.78375 6.66 -1.5675 7.32 -2.375 8 C-5 10 -5 10 -7 10 C-7.061875 10.763125 -7.12375 11.52625 -7.1875 12.3125 C-8 15 -8 15 -10.375 16.3125 C-14.16285184 18.74754761 -14.69245359 21.84267294 -16 26 C-16.9375 28.4375 -16.9375 28.4375 -18 30 C-20.125 30.75 -20.125 30.75 -22 31 C-21.5875 30.360625 -21.175 29.72125 -20.75 29.0625 C-19.33633554 26.5885872 -18.30372506 24.31272882 -17.25 21.6875 C-14.51477599 15.39648479 -10.40244646 9.7940501 -4 7 C-4 6.01 -4 5.02 -4 4 C-3.34 4 -2.68 4 -2 4 C-1.34 2.68 -0.68 1.36 0 0 Z " fill="#DBDBDB" transform="translate(155,136)"/>
<path d="M0 0 C0.99 0.33 1.98 0.66 3 1 C2.67 3.31 2.34 5.62 2 8 C1.34 7.01 0.68 6.02 0 5 C-2.64167228 6.52791204 -2.64167228 6.52791204 -5 9 C-5.41771804 12.66799815 -5.41771804 12.66799815 -5 16 C-4.34 16.33 -3.68 16.66 -3 17 C-3.66 17 -4.32 17 -5 17 C-4.67 17.99 -4.34 18.98 -4 20 C-3.01 19.34 -2.02 18.68 -1 18 C-1.66 21.96 -2.32 25.92 -3 30 C-3.33 30 -3.66 30 -4 30 C-4.2165625 28.6078125 -4.2165625 28.6078125 -4.4375 27.1875 C-4.92100111 23.99274889 -4.92100111 23.99274889 -6 21 C-7.98 21.33 -9.96 21.66 -12 22 C-12.02708567 20.39592672 -12.04643483 18.7917215 -12.0625 17.1875 C-12.07410156 16.29417969 -12.08570312 15.40085938 -12.09765625 14.48046875 C-12 12 -12 12 -11 9 C-9.34151823 7.98648336 -7.67334039 6.98879205 -6 6 C-4.29503463 4.37253306 -2.62102968 2.71108689 -1 1 C-0.67 0.67 -0.34 0.34 0 0 Z " fill="#E9E9E9" transform="translate(134,149)"/>
<path d="M0 0 C1.6266848 0.28211877 3.25132896 0.57602375 4.875 0.875 C5.77992188 1.03742188 6.68484375 1.19984375 7.6171875 1.3671875 C10 2 10 2 12 4 C14.13592982 4.42355123 14.13592982 4.42355123 16.5 4.5625 C20.81081081 4.90540541 20.81081081 4.90540541 23 6 C23 5.01 23 4.02 23 3 C25.64 2.67 28.28 2.34 31 2 C31 2.66 31 3.32 31 4 C31.99 4 32.98 4 34 4 C33 6 33 6 31.25 6.6328125 C23.61574227 8.30280638 17.28237572 8.90682809 9.8125 6.3125 C5.85905687 4.94699359 5.85905687 4.94699359 1.875 6.3125 C0.451875 7.1478125 0.451875 7.1478125 -1 8 C-3.72433142 8.26845602 -6.25408562 8.14203005 -9 8 C-9 7.67 -9 7.34 -9 7 C-7.35 6.67 -5.7 6.34 -4 6 C-4 5.34 -4 4.68 -4 4 C-1.69 4 0.62 4 3 4 C3 3.34 3 2.68 3 2 C2.01 1.67 1.02 1.34 0 1 C0 0.67 0 0.34 0 0 Z " fill="#D6D6D6" transform="translate(144,85)"/>
<path d="M0 0 C0.99 0.33 1.98 0.66 3 1 C3.33 2.98 3.66 4.96 4 7 C4.66 7 5.32 7 6 7 C6 5.02 6 3.04 6 1 C6.33 1 6.66 1 7 1 C7.33 2.98 7.66 4.96 8 7 C8.33 6.34 8.66 5.68 9 5 C9.66 5 10.32 5 11 5 C11.33 7.97 11.66 10.94 12 14 C9.03 14.66 6.06 15.32 3 16 C3 14.68 3 13.36 3 12 C2.01 11.67 1.02 11.34 0 11 C-1.28571429 3.57142857 -1.28571429 3.57142857 0 0 Z " fill="#D6D6D6" transform="translate(117,191)"/>
<path d="M0 0 C3.25 -0.375 3.25 -0.375 6 0 C6 0.66 6 1.32 6 2 C5.34 2 4.68 2 4 2 C3.9071875 2.86625 3.9071875 2.86625 3.8125 3.75 C2.66289022 6.93353478 0.74323838 8.10585921 -2 10 C-2.99 10.33 -3.98 10.66 -5 11 C-5.33 11.99 -5.66 12.98 -6 14 C-9.35595828 13.40072174 -11.37801226 12.15377564 -14 10 C-13.34 8.35 -12.68 6.7 -12 5 C-9.36 5.33 -6.72 5.66 -4 6 C-3.46375 5.01 -2.9275 4.02 -2.375 3 C-1.59125 2.01 -0.8075 1.02 0 0 Z " fill="#A9A9A9" transform="translate(205,130)"/>
<path d="M0 0 C2.31 0.66 4.62 1.32 7 2 C7 2.99 7 3.98 7 5 C7.66 5.33 8.32 5.66 9 6 C9 7.65 9 9.3 9 11 C7.68 11 6.36 11 5 11 C4.67 11.99 4.34 12.98 4 14 C3.67 12.68 3.34 11.36 3 10 C2.34 10 1.68 10 1 10 C-1.125 8.125 -1.125 8.125 -3 6 C-3 5.34 -3 4.68 -3 4 C-2.01 3.34 -1.02 2.68 0 2 C0 1.34 0 0.68 0 0 Z " fill="#777777" transform="translate(167,128)"/>
<path d="M0 0 C0.20715279 5.07524347 -0.16811858 9.2371083 -2 14 C-3.32 14.99 -4.64 15.98 -6 17 C-6.33 12.71 -6.66 8.42 -7 4 C-1.125 0 -1.125 0 0 0 Z " fill="#0C0C0C" transform="translate(135,153)"/>
<path d="M0 0 C2.95584151 2.75199037 5.18765147 5.37530293 7 9 C7 10.32 7 11.64 7 13 C4.6875 13.25 4.6875 13.25 2 13 C0.1875 11.4375 0.1875 11.4375 -1 9 C-1.42424242 2.84848485 -1.42424242 2.84848485 0 0 Z " fill="#F1F1F1" transform="translate(116,127)"/>
<path d="M0 0 C0.66 0 1.32 0 2 0 C1.835 1.010625 1.67 2.02125 1.5 3.0625 C1.03014231 6.76262933 0.92400151 10.27607391 1 14 C0.01 14 -0.98 14 -2 14 C-2 13.34 -2 12.68 -2 12 C-3.65 12.33 -5.3 12.66 -7 13 C-6.02325896 11.01963514 -5.04354018 9.04073867 -4.0625 7.0625 C-3.51722656 5.96035156 -2.97195312 4.85820312 -2.41015625 3.72265625 C-1 1 -1 1 0 0 Z " fill="#D8D8D8" transform="translate(139,173)"/>
<path d="M0 0 C0.66 0 1.32 0 2 0 C2.28875 0.94875 2.5775 1.8975 2.875 2.875 C3.76825109 6.05211578 3.76825109 6.05211578 6 8 C4.63875 7.9071875 4.63875 7.9071875 3.25 7.8125 C-0.28982642 8.01672076 -1.44931155 8.64551835 -4 11 C-4.66 10.67 -5.32 10.34 -6 10 C-6 8.35 -6 6.7 -6 5 C-5.38125 4.9175 -4.7625 4.835 -4.125 4.75 C-1.81562433 4.18741541 -1.81562433 4.18741541 -0.75 1.9375 C-0.5025 1.298125 -0.255 0.65875 0 0 Z " fill="#EBEBEB" transform="translate(162,136)"/>
<path d="M0 0 C0.69867188 0.11859375 1.39734375 0.2371875 2.1171875 0.359375 C4.47178037 0.74417228 6.74382819 0.76191162 9.125 0.6875 C9.125 1.3475 9.125 2.0075 9.125 2.6875 C8.465 2.6875 7.805 2.6875 7.125 2.6875 C6.795 4.0075 6.465 5.3275 6.125 6.6875 C4.475 7.0175 2.825 7.3475 1.125 7.6875 C1.125 6.6975 1.125 5.7075 1.125 4.6875 C-1.515 4.0275 -4.155 3.3675 -6.875 2.6875 C-4.81382084 -0.53309244 -3.909941 -0.31531782 0 0 Z " fill="#D0D0D0" transform="translate(162.875,150.3125)"/>
<path d="M0 0 C2.66666667 0.66666667 5.33333333 1.33333333 8 2 C7 4 7 4 5 5 C5.66 5.33 6.32 5.66 7 6 C6.67 6.99 6.34 7.98 6 9 C2.64404172 8.40072174 0.62198774 7.15377564 -2 5 C-1.34 3.35 -0.68 1.7 0 0 Z " fill="#E1E1E1" transform="translate(193,135)"/>
<path d="M0 0 C0.66 0 1.32 0 2 0 C2.33 1.65 2.66 3.3 3 5 C-3.625 8.875 -3.625 8.875 -7 10 C-7.33 10.66 -7.66 11.32 -8 12 C-8 11.01 -8 10.02 -8 9 C-6.68 8.34 -5.36 7.68 -4 7 C-4 6.01 -4 5.02 -4 4 C-3.34 4 -2.68 4 -2 4 C-1.34 2.68 -0.68 1.36 0 0 Z " fill="#DADADA" transform="translate(155,136)"/>
<path d="M0 0 C0.66 0 1.32 0 2 0 C2.33 0.99 2.66 1.98 3 3 C3.99 3.33 4.98 3.66 6 4 C6.061875 4.763125 6.12375 5.52625 6.1875 6.3125 C7.2547656 9.84268623 8.8475042 10.30250226 12 12 C12 12.66 12 13.32 12 14 C9.03824877 13.38722388 7.61941217 12.74627478 5 11 C3.96986723 9.35178756 2.96885372 7.68496298 2 6 C1.34 5.34 0.68 4.68 0 4 C0 2.68 0 1.36 0 0 Z " fill="#E4E4E4" transform="translate(142,112)"/>
<path d="M0 0 C2.64 0.33 5.28 0.66 8 1 C6.68 1.33 5.36 1.66 4 2 C4.33 2.99 4.66 3.98 5 5 C-0.00932754 8.00559652 -3.32723489 8.29341888 -9 8 C-9 7.67 -9 7.34 -9 7 C-7.35 6.67 -5.7 6.34 -4 6 C-4 5.34 -4 4.68 -4 4 C-1.69 4 0.62 4 3 4 C3 3.34 3 2.68 3 2 C2.01 1.67 1.02 1.34 0 1 C0 0.67 0 0.34 0 0 Z " fill="#C7C7C7" transform="translate(144,85)"/>
<path d="M0 0 C2.875 -0.125 2.875 -0.125 6 0 C6.66 0.66 7.32 1.32 8 2 C10.20250992 2.46006346 10.20250992 2.46006346 12.625 2.625 C13.44226563 2.69976562 14.25953125 2.77453125 15.1015625 2.8515625 C15.72804687 2.90054688 16.35453125 2.94953125 17 3 C17 3.66 17 4.32 17 5 C10.66606918 5.34548714 5.89738492 4.29342747 0 2 C0 1.34 0 0.68 0 0 Z " fill="#E9E9E9" transform="translate(148,87)"/>
<path d="M0 0 C2.6875 -0.3125 2.6875 -0.3125 5 0 C5 3 5 3 3.8125 4.75 C2 6 2 6 -0.6875 5.6875 C-1.450625 5.460625 -2.21375 5.23375 -3 5 C-1.8125 2.5 -1.8125 2.5 0 0 Z " fill="#CCCCCC" transform="translate(107,88)"/>
<path d="M0 0 C2 3 2 3 2 5 C-1 7 -1 7 -4 7 C-4.33 6.01 -4.66 5.02 -5 4 C-3.35 2.68 -1.7 1.36 0 0 Z M-7 5 C-6.01 5.495 -6.01 5.495 -5 6 C-5.99 6.495 -5.99 6.495 -7 7 C-7 6.34 -7 5.68 -7 5 Z " fill="#4F4F4F" transform="translate(155,141)"/>
<path d="M0 0 C1.65 0 3.3 0 5 0 C5 1.66666667 5 3.33333333 5 5 C3.02 5.99 3.02 5.99 1 7 C1 6.34 1 5.68 1 5 C-0.32 4.67 -1.64 4.34 -3 4 C-1.68 4 -0.36 4 1 4 C0.67 2.68 0.34 1.36 0 0 Z " fill="#D0D0D0" transform="translate(98,137)"/>
<path d="M0 0 C0.99 0.66 1.98 1.32 3 2 C-1.08078632 7.0022542 -4.69280693 8.07934219 -11 9 C-10.67 8.01 -10.34 7.02 -10 6 C-8.88625 5.690625 -7.7725 5.38125 -6.625 5.0625 C-2.83732365 3.952319 -1.89054174 3.33625014 0 0 Z " fill="#DFDFDF" transform="translate(159,127)"/>
<path d="M0 0 C1.32 0.33 2.64 0.66 4 1 C3.67 2.32 3.34 3.64 3 5 C-1 5 -1 5 -4 3 C-2.68 2.67 -1.36 2.34 0 2 C0 1.34 0 0.68 0 0 Z " fill="#E7E7E7" transform="translate(197,129)"/>
<path d="M0 0 C0.66 1.32 1.32 2.64 2 4 C3.32 4 4.64 4 6 4 C6 5.32 6 6.64 6 8 C4.68 8 3.36 8 2 8 C1.67 7.34 1.34 6.68 1 6 C-1.01669827 4.86649466 -1.01669827 4.86649466 -3 4 C-2.34 4 -1.68 4 -1 4 C-0.67 2.68 -0.34 1.36 0 0 Z " fill="#313131" transform="translate(122,166)"/>
<path d="M0 0 C2.31 0 4.62 0 7 0 C6.67 0.99 6.34 1.98 6 3 C5.34 3 4.68 3 4 3 C4 3.66 4 4.32 4 5 C2.35 5 0.7 5 -1 5 C-1.33 4.34 -1.66 3.68 -2 3 C-1.34 3 -0.68 3 0 3 C0 2.01 0 1.02 0 0 Z " fill="#FCFCFC" transform="translate(112,88)"/>
<path d="M0 0 C1.34129763 4.0238929 0.47139194 6.07628815 -1 10 C-3.125 11.9375 -3.125 11.9375 -5 13 C-5 11.68 -5 10.36 -5 9 C-4.34 9 -3.68 9 -3 9 C-2.01 6.03 -1.02 3.06 0 0 Z " fill="#4B4B4B" transform="translate(134,157)"/>
<path d="M0 0 C1.98 0 3.96 0 6 0 C6 0.66 6 1.32 6 2 C5.34 2 4.68 2 4 2 C4 2.99 4 3.98 4 5 C2.35 4.67 0.7 4.34 -1 4 C-0.67 2.68 -0.34 1.36 0 0 Z " fill="#D4D4D4" transform="translate(205,130)"/>
<path d="M0 0 C0.33 0 0.66 0 1 0 C1.3125 2.75 1.3125 2.75 1 6 C-1.5 8.375 -1.5 8.375 -4 10 C-3.34 7.36 -2.68 4.72 -2 2 C-1.34 2 -0.68 2 0 2 C0 1.34 0 0.68 0 0 Z " fill="#040404" transform="translate(137,155)"/>
<path d="M0 0 C2.31 0.66 4.62 1.32 7 2 C7 2.99 7 3.98 7 5 C4.69 4.67 2.38 4.34 0 4 C0 2.68 0 1.36 0 0 Z " fill="#DCDCDC" transform="translate(149,91)"/>
<path d="M0 0 C0.66 0 1.32 0 2 0 C1.37312706 2.92540704 0.64872507 5.4835249 -1 8 C-3.125 8.75 -3.125 8.75 -5 9 C-4.54625 8.2575 -4.0925 7.515 -3.625 6.75 C-2.31359204 4.53069422 -1.11719197 2.32032178 0 0 Z " fill="#C4C4C4" transform="translate(138,158)"/>
<path d="M0 0 C1.3609623 2.7219246 0.70366248 4.1831957 0.0625 7.125 C-0.13214844 8.03507813 -0.32679688 8.94515625 -0.52734375 9.8828125 C-0.68332031 10.58148438 -0.83929688 11.28015625 -1 12 C-1.33 12 -1.66 12 -2 12 C-2.2165625 10.63875 -2.2165625 10.63875 -2.4375 9.25 C-2.86409473 6.78523044 -3.35074221 4.41152893 -4 2 C-2.68 1.34 -1.36 0.68 0 0 Z " fill="#B1B1B1" transform="translate(132,167)"/>
<path d="M0 0 C1.98 0.66 3.96 1.32 6 2 C5.34 2.66 4.68 3.32 4 4 C0.375 3.625 0.375 3.625 -3 3 C-2.01 2.01 -1.02 1.02 0 0 Z " fill="#D8D8D8" transform="translate(159,150)"/>
<path d="M0 0 C0.99 0.33 1.98 0.66 3 1 C2.3125 2.9375 2.3125 2.9375 1 5 C-1.625 5.75 -1.625 5.75 -4 6 C-3.34 5.67 -2.68 5.34 -2 5 C-1.27840576 3.35636866 -0.60648579 1.68949614 0 0 Z " fill="#262626" transform="translate(201,131)"/>
<path d="M0 0 C1.98 0 3.96 0 6 0 C5.67 1.65 5.34 3.3 5 5 C4.34 5 3.68 5 3 5 C3 3.68 3 2.36 3 1 C2.01 0.67 1.02 0.34 0 0 Z " fill="#545454" transform="translate(197,140)"/>
<path d="M0 0 C1.98 0.66 3.96 1.32 6 2 C6 2.66 6 3.32 6 4 C3.625 4.1875 3.625 4.1875 1 4 C0.34 3.01 -0.32 2.02 -1 1 C-0.67 0.67 -0.34 0.34 0 0 Z " fill="#D3D3D3" transform="translate(184,123)"/>
<path d="M0 0 C1.84765625 0.33984375 1.84765625 0.33984375 4.0625 0.9375 C5.16271484 1.22947266 5.16271484 1.22947266 6.28515625 1.52734375 C7.13400391 1.76130859 7.13400391 1.76130859 8 2 C7.67 2.66 7.34 3.32 7 4 C3.62537285 3.45276317 1.91765 2.9451 -1 1 C-0.67 0.67 -0.34 0.34 0 0 Z " fill="#111111" transform="translate(149,89)"/>
</svg>
